<svg width="120" height="33" viewBox="0 0 120 33" fill="none" xmlns="http://www.w3.org/2000/svg">
<path fill-rule="evenodd" clip-rule="evenodd" d="M1 11.5161L10.5987 5.97428L12.3039 8.92772L2.70517 14.4695L1 11.5161Z" fill="#00ACC1"/>
<path fill-rule="evenodd" clip-rule="evenodd" d="M30.1635 21.7865L20.5648 27.3283L18.8596 24.3748L28.4583 18.833L30.1635 21.7865Z" fill="#00ACC1"/>
<path fill-rule="evenodd" clip-rule="evenodd" d="M12.6477 1.40308L22.2464 6.94489L20.5412 9.89833L10.9425 4.35652L12.6477 1.40308Z" fill="#00ACC1"/>
<path fill-rule="evenodd" clip-rule="evenodd" d="M27.1688 6.53837V17.622H23.7584V6.53837H27.1688Z" fill="#00ACC1"/>
<path fill-rule="evenodd" clip-rule="evenodd" d="M3.87334 26.7644L3.87334 15.6808H7.28369V26.7644H3.87334Z" fill="#00ACC1"/>
<path fill-rule="evenodd" clip-rule="evenodd" d="M18.5157 31.8995L8.91705 26.3577L10.6222 23.4042L20.2209 28.946L18.5157 31.8995Z" fill="#00ACC1"/>
<path d="M16.0755 9.9866H15.0881L14.7164 13.3326C14.5729 14.6235 13.5539 15.6425 12.263 15.7859L8.91705 16.1577V17.1451L12.263 17.5168C13.5539 17.6603 14.5729 18.6793 14.7164 19.9702L15.0881 23.3162H16.0755L16.4473 19.9702C16.5907 18.6793 17.6098 17.6603 18.9006 17.5168L22.2466 17.1451V16.1577L18.9006 15.7859C17.6098 15.6425 16.5907 14.6235 16.4473 13.3326L16.0755 9.9866Z" fill="#00ACC1"/>
<path d="M53.8708 6.33097L47.9348 20.751L41.9988 6.33097H38.1348V25.931H41.1868V11.259L47.0948 25.651H48.7748L54.7108 11.259V25.931H57.7628V6.33097H53.8708Z" fill="white"/>
<path d="M73.7256 18.791C73.7256 14.423 71.2616 11.315 66.8096 11.315C62.4696 11.315 59.8096 14.619 59.8096 18.791C59.8096 23.103 62.5536 26.211 66.9496 26.211C70.0296 26.211 72.7736 24.559 73.5296 21.619H70.5056C69.8616 23.159 68.5736 23.831 66.9496 23.831C64.4016 23.831 62.8616 21.955 62.8056 19.435H73.7256V18.791ZM62.8616 17.363C63.1136 15.179 64.6256 13.639 66.8376 13.639C69.1616 13.639 70.4776 15.067 70.7296 17.363H62.8616Z" fill="white"/>
<path d="M77.1049 9.29897C78.1409 9.29897 78.9529 8.54297 78.9529 7.50697C78.9529 6.47097 78.1409 5.71497 77.1049 5.71497C76.0689 5.71497 75.2569 6.47097 75.2569 7.50697C75.2569 8.54297 76.0689 9.29897 77.1049 9.29897ZM78.5329 25.931V11.595H75.5929V25.931H78.5329Z" fill="white"/>
<path d="M83.7306 15.487C83.7306 14.367 84.7946 13.583 86.2786 13.583C87.8466 13.583 88.9386 14.367 89.0786 15.599H91.9066C91.6826 12.995 89.5266 11.315 86.2786 11.315C83.0586 11.315 80.8746 13.079 80.8746 15.627C80.8746 17.699 82.2746 18.931 85.5506 19.659L86.4186 19.855C88.6306 20.359 89.3586 20.863 89.3586 21.871C89.3586 23.047 88.2386 23.887 86.6426 23.887C84.7666 23.887 83.4506 22.935 83.4226 21.535H80.4826C80.7066 24.391 83.0586 26.211 86.5026 26.211C90.0866 26.211 92.2986 24.475 92.2986 21.675C92.2986 19.547 90.7866 18.315 87.3426 17.559L86.4186 17.363C84.4866 16.971 83.7306 16.411 83.7306 15.487Z" fill="white"/>
<path d="M96.6237 15.487C96.6237 14.367 97.6877 13.583 99.1717 13.583C100.74 13.583 101.832 14.367 101.972 15.599H104.8C104.576 12.995 102.42 11.315 99.1717 11.315C95.9517 11.315 93.7677 13.079 93.7677 15.627C93.7677 17.699 95.1677 18.931 98.4437 19.659L99.3117 19.855C101.524 20.359 102.252 20.863 102.252 21.871C102.252 23.047 101.132 23.887 99.5357 23.887C97.6597 23.887 96.3437 22.935 96.3157 21.535H93.3757C93.5997 24.391 95.9517 26.211 99.3957 26.211C102.98 26.211 105.192 24.475 105.192 21.675C105.192 19.547 103.68 18.315 100.236 17.559L99.3117 17.363C97.3797 16.971 96.6237 16.411 96.6237 15.487Z" fill="white"/>
<path d="M113.017 11.315C109.601 11.315 107.053 13.191 106.913 15.851H109.741C109.853 14.535 111.113 13.667 112.877 13.667C114.893 13.667 115.761 14.619 115.761 16.859V17.279C109.517 17.279 106.325 18.875 106.325 22.011C106.325 24.531 108.313 26.183 111.337 26.183C113.409 26.183 115.033 25.371 115.873 23.887L116.153 25.931H118.701V16.803C118.701 13.191 116.741 11.315 113.017 11.315ZM115.789 20.443C115.789 22.571 114.277 23.943 111.897 23.943C110.301 23.943 109.265 23.187 109.265 21.983C109.265 20.275 111.477 19.295 115.789 19.295V20.443Z" fill="white"/>
</svg>
